<svg xmlns="http://www.w3.org/2000/svg" width="1492.0634765625" height="1175.306396484375" viewBox="-608.4349975585938 -370.2908630371094 1492.0634765625 1175.306396484375"><title>Neo4j Graph Visualization</title><desc>Created using Neo4j (http://www.neo4j.com/)</desc><g class="layer relationships"><g class="relationship" transform="translate(-536.39439917184 33.34357163524577) rotate(459.04511262915935)"><path class="outline" fill="#57C7E3" stroke="none" d="M 25 2.5 L 54.567825742353605 2.5 L 54.567825742353605 -2.5 L 25 -2.5 Z M 84.5678257423536 2.5 L 114.13565148470721 2.5 L 114.13565148470721 5.5 L 125.13565148470721 0 L 114.13565148470721 -5.5 L 114.13565148470721 -2.5 L 84.5678257423536 -2.5 Z"/><text text-anchor="middle" pointer-events="none" font-size="8px" fill="#000000" x="69.5678257423536" y="3" transform="rotate(180 69.5678257423536 0)" font-family="sans-serif">效忠于</text></g><g class="relationship" transform="translate(-213.547215523816 706.9710868441331) rotate(392.96174265916017)"><path class="outline" fill="#FFE081" stroke="none" d="M 25 2.5 L 28.30822526202907 2.5 L 28.30822526202907 -2.5 L 25 -2.5 Z M 66.30822526202907 2.5 L 69.61645052405814 2.5 L 69.61645052405814 5.5 L 80.61645052405814 0 L 69.61645052405814 -5.5 L 69.61645052405814 -2.5 L 66.30822526202907 -2.5 Z"/><text text-anchor="middle" pointer-events="none" font-size="8px" fill="#000000" x="47.30822526202907" y="3" font-family="sans-serif">所属势力</text></g><g class="relationship" transform="translate(-559.9975382187762 181.61226581533379) rotate(444.15595362625794)"><path class="outline" fill="#FFE081" stroke="none" d="M 25 2.5 L 39.59855612555049 2.5 L 39.59855612555049 -2.5 L 25 -2.5 Z M 77.59855612555049 2.5 L 92.19711225110098 2.5 L 92.19711225110098 5.5 L 103.19711225110098 0 L 92.19711225110098 -5.5 L 92.19711225110098 -2.5 L 77.59855612555049 -2.5 Z"/><text text-anchor="middle" pointer-events="none" font-size="8px" fill="#000000" x="58.59855612555049" y="3" font-family="sans-serif">所属势力</text></g><g class="relationship" transform="translate(-468.25125832072047 416.8488105913527) rotate(232.1387787661924)"><path class="outline" fill="#FFE081" stroke="none" d="M 25 2.5 L 35.236212932064376 2.5 L 35.236212932064376 -2.5 L 25 -2.5 Z M 73.23621293206438 2.5 L 83.47242586412875 2.5 L 83.47242586412875 5.5 L 94.47242586412875 0 L 83.47242586412875 -5.5 L 83.47242586412875 -2.5 L 73.23621293206438 -2.5 Z"/><text text-anchor="middle" pointer-events="none" font-size="8px" fill="#000000" x="54.236212932064376" y="3" transform="rotate(180 54.236212932064376 0)" font-family="sans-serif">所属势力</text></g><g class="relationship" transform="translate(-558.8909141183466 436.89809693218064) rotate(276.0314658947001)"><path class="outline" fill="#FFE081" stroke="none" d="M 25 2.5 L 32.23179351405872 2.5 L 32.23179351405872 -2.5 L 25 -2.5 Z M 70.23179351405872 2.5 L 77.46358702811744 2.5 L 77.46358702811744 5.5 L 88.46358702811744 0 L 77.46358702811744 -5.5 L 77.46358702811744 -2.5 L 70.23179351405872 -2.5 Z"/><text text-anchor="middle" pointer-events="none" font-size="8px" fill="#000000" x="51.23179351405872" y="3" font-family="sans-serif">所属势力</text></g><g class="relationship" transform="translate(603.3584183757062 358.3599685426832) rotate(420.5407678721739)"><path class="outline" fill="#FFE081" stroke="none" d="M 25 2.5 L 38.86997410408287 2.5 L 38.86997410408287 -2.5 L 25 -2.5 Z M 76.86997410408287 2.5 L 90.73994820816574 2.5 L 90.73994820816574 5.5 L 101.73994820816574 0 L 90.73994820816574 -5.5 L 90.73994820816574 -2.5 L 76.86997410408287 -2.5 Z"/><text text-anchor="middle" pointer-events="none" font-size="8px" fill="#000000" x="57.86997410408287" y="3" font-family="sans-serif">所属势力</text></g><g class="relationship" transform="translate(294.4232674474098 227.3964292490121) rotate(194.10720786624097)"><path class="outline" fill="#FFE081" stroke="none" d="M 25 2.5 L 44.002496375403496 2.5 L 44.002496375403496 -2.5 L 25 -2.5 Z M 82.0024963754035 2.5 L 101.00499275080699 2.5 L 101.00499275080699 5.5 L 112.00499275080699 0 L 101.00499275080699 -5.5 L 101.00499275080699 -2.5 L 82.0024963754035 -2.5 Z"/><text text-anchor="middle" pointer-events="none" font-size="8px" fill="#000000" x="63.002496375403496" y="3" transform="rotate(180 63.002496375403496 0)" font-family="sans-serif">所属势力</text></g><g class="relationship" transform="translate(41.406575901053344 213.40759445911365) rotate(349.3463650555134)"><path class="outline" fill="#FFE081" stroke="none" d="M 25 2.5 L 29.17473254857012 2.5 L 29.17473254857012 -2.5 L 25 -2.5 Z M 67.17473254857012 2.5 L 71.34946509714024 2.5 L 71.34946509714024 5.5 L 82.34946509714024 0 L 71.34946509714024 -5.5 L 71.34946509714024 -2.5 L 67.17473254857012 -2.5 Z"/><text text-anchor="middle" pointer-events="none" font-size="8px" fill="#000000" x="48.17473254857012" y="3" font-family="sans-serif">所属势力</text></g><g class="relationship" transform="translate(94.51873607816188 18.68912464588599) rotate(430.9936339720649)"><path class="outline" fill="#FFE081" stroke="none" d="M 25 2.5 L 63.49474788447236 2.5 L 63.49474788447236 -2.5 L 25 -2.5 Z M 101.49474788447236 2.5 L 139.98949576894472 2.5 L 139.98949576894472 5.5 L 150.98949576894472 0 L 139.98949576894472 -5.5 L 139.98949576894472 -2.5 L 101.49474788447236 -2.5 Z"/><text text-anchor="middle" pointer-events="none" font-size="8px" fill="#000000" x="82.49474788447236" y="3" font-family="sans-serif">所属势力</text></g><g class="relationship" transform="translate(161.88191365880962 355.80635471828066) rotate(267.3388111322347)"><path class="outline" fill="#FFE081" stroke="none" d="M 25 2.5 L 53.6538998042582 2.5 L 53.6538998042582 -2.5 L 25 -2.5 Z M 91.6538998042582 2.5 L 120.3077996085164 2.5 L 120.3077996085164 5.5 L 131.3077996085164 0 L 120.3077996085164 -5.5 L 120.3077996085164 -2.5 L 91.6538998042582 -2.5 Z"/><text text-anchor="middle" pointer-events="none" font-size="8px" fill="#000000" x="72.6538998042582" y="3" transform="rotate(180 72.6538998042582 0)" font-family="sans-serif">所属势力</text></g><g class="relationship" transform="translate(197.98228411165994 301.8517368125499) rotate(248.27279002533987)"><path class="outline" fill="#FFE081" stroke="none" d="M 25 2.5 L 30.782085989059397 2.5 L 30.782085989059397 -2.5 L 25 -2.5 Z M 68.7820859890594 2.5 L 74.5641719781188 2.5 L 74.5641719781188 5.5 L 85.5641719781188 0 L 74.5641719781188 -5.5 L 74.5641719781188 -2.5 L 68.7820859890594 -2.5 Z"/><text text-anchor="middle" pointer-events="none" font-size="8px" fill="#000000" x="49.7820859890594" y="3" transform="rotate(180 49.7820859890594 0)" font-family="sans-serif">所属势力</text></g><g class="relationship" transform="translate(104.05071029864806 300.5006994623266) rotate(294.8750261840238)"><path class="outline" fill="#FFE081" stroke="none" d="M 25 2.5 L 31.451394041737714 2.5 L 31.451394041737714 -2.5 L 25 -2.5 Z M 69.45139404173771 2.5 L 75.90278808347543 2.5 L 75.90278808347543 5.5 L 86.90278808347543 0 L 75.90278808347543 -5.5 L 75.90278808347543 -2.5 L 69.45139404173771 -2.5 Z"/><text text-anchor="middle" pointer-events="none" font-size="8px" fill="#000000" x="50.451394041737714" y="3" font-family="sans-serif">所属势力</text></g><g class="relationship" transform="translate(525.0624190886672 428.90080496616906) rotate(503.34496408754507)"><path class="outline" fill="#FFE081" stroke="none" d="M 25 2.5 L 27.539068006751243 2.5 L 27.539068006751243 -2.5 L 25 -2.5 Z M 49.53906800675124 2.5 L 52.07813601350249 2.5 L 52.07813601350249 5.5 L 63.07813601350249 0 L 52.07813601350249 -5.5 L 52.07813601350249 -2.5 L 49.53906800675124 -2.5 Z"/><text text-anchor="middle" pointer-events="none" font-size="8px" fill="#000000" x="38.53906800675124" y="3" transform="rotate(180 38.53906800675124 0)" font-family="sans-serif">所…</text></g><g class="relationship" transform="translate(414.73519603334717 619.1983437311413) rotate(284.1740721329551)"><path class="outline" fill="#FFE081" stroke="none" d="M 25 2.5 L 40.46070984034286 2.5 L 40.46070984034286 -2.5 L 25 -2.5 Z M 78.46070984034286 2.5 L 93.92141968068572 2.5 L 93.92141968068572 5.5 L 104.92141968068572 0 L 93.92141968068572 -5.5 L 93.92141968068572 -2.5 L 78.46070984034286 -2.5 Z"/><text text-anchor="middle" pointer-events="none" font-size="8px" fill="#000000" x="59.46070984034286" y="3" font-family="sans-serif">所属势力</text></g><g class="relationship" transform="translate(374.38450083478295 427.58623950275) rotate(398.2675227801111)"><path class="outline" fill="#FFE081" stroke="none" d="M 25 2.5 L 26.876669802007953 2.5 L 26.876669802007953 -2.5 L 25 -2.5 Z M 48.87666980200795 2.5 L 50.753339604015906 2.5 L 50.753339604015906 5.5 L 61.753339604015906 0 L 50.753339604015906 -5.5 L 50.753339604015906 -2.5 L 48.87666980200795 -2.5 Z"/><text text-anchor="middle" pointer-events="none" font-size="8px" fill="#000000" x="37.87666980200795" y="3" font-family="sans-serif">所…</text></g><g class="relationship" transform="translate(454.27014279287545 322.2510165213405) rotate(452.05868344160854)"><path class="outline" fill="#FFE081" stroke="none" d="M 25 2.5 L 53.65763145310241 2.5 L 53.65763145310241 -2.5 L 25 -2.5 Z M 91.65763145310241 2.5 L 120.31526290620482 2.5 L 120.31526290620482 5.5 L 131.31526290620482 0 L 120.31526290620482 -5.5 L 120.31526290620482 -2.5 L 91.65763145310241 -2.5 Z"/><text text-anchor="middle" pointer-events="none" font-size="8px" fill="#000000" x="72.65763145310241" y="3" transform="rotate(180 72.65763145310241 0)" font-family="sans-serif">所属势力</text></g><g class="relationship" transform="translate(62.92946758434788 451.47929234176155) rotate(458.9570158474464)"><path class="outline" fill="#FFE081" stroke="none" d="M 25 2.5 L 43.44748497533162 2.5 L 43.44748497533162 -2.5 L 25 -2.5 Z M 81.44748497533162 2.5 L 99.89496995066324 2.5 L 99.89496995066324 5.5 L 110.89496995066324 0 L 99.89496995066324 -5.5 L 99.89496995066324 -2.5 L 81.44748497533162 -2.5 Z"/><text text-anchor="middle" pointer-events="none" font-size="8px" fill="#000000" x="62.44748497533162" y="3" transform="rotate(180 62.44748497533162 0)" font-family="sans-serif">所属势力</text></g><g class="relationship" transform="translate(65.46492793815214 713.1674832006665) rotate(258.29924836114486)"><path class="outline" fill="#FFE081" stroke="none" d="M 25 2.5 L 33.04462409736529 2.5 L 33.04462409736529 -2.5 L 25 -2.5 Z M 71.0446240973653 2.5 L 79.08924819473059 2.5 L 79.08924819473059 5.5 L 90.08924819473059 0 L 79.08924819473059 -5.5 L 79.08924819473059 -2.5 L 71.0446240973653 -2.5 Z"/><text text-anchor="middle" pointer-events="none" font-size="8px" fill="#000000" x="52.04462409736529" y="3" transform="rotate(180 52.04462409736529 0)" font-family="sans-serif">所属势力</text></g><g class="relationship" transform="translate(525.0641395354719 -65.32706332062914) rotate(276.9141066780628)"><path class="outline" fill="#FFE081" stroke="none" d="M 25 2.5 L 44.07619414644286 2.5 L 44.07619414644286 -2.5 L 25 -2.5 Z M 82.07619414644286 2.5 L 101.15238829288572 2.5 L 101.15238829288572 5.5 L 112.15238829288572 0 L 101.15238829288572 -5.5 L 101.15238829288572 -2.5 L 82.07619414644286 -2.5 Z"/><text text-anchor="middle" pointer-events="none" font-size="8px" fill="#000000" x="63.07619414644286" y="3" font-family="sans-serif">所属势力</text></g><g class="relationship" transform="translate(854.6284349536664 283.1237132992336) rotate(523.9504439241066)"><path class="outline" fill="#FFE081" stroke="none" d="M 25 2.5 L 31.009446194791806 2.5 L 31.009446194791806 -2.5 L 25 -2.5 Z M 69.0094461947918 2.5 L 75.01889238958361 2.5 L 75.01889238958361 5.5 L 86.01889238958361 0 L 75.01889238958361 -5.5 L 75.01889238958361 -2.5 L 69.0094461947918 -2.5 Z"/><text text-anchor="middle" pointer-events="none" font-size="8px" fill="#000000" x="50.009446194791806" y="3" transform="rotate(180 50.009446194791806 0)" font-family="sans-serif">所属势力</text></g><g class="relationship" transform="translate(603.3584183757062 358.3599685426832) rotate(342.82048783651726)"><path class="outline" fill="#FFE081" stroke="none" d="M 25 2.5 L 43.64289185390071 2.5 L 43.64289185390071 -2.5 L 25 -2.5 Z M 81.64289185390071 2.5 L 100.28578370780141 2.5 L 100.28578370780141 5.5 L 111.28578370780141 0 L 100.28578370780141 -5.5 L 100.28578370780141 -2.5 L 81.64289185390071 -2.5 Z"/><text text-anchor="middle" pointer-events="none" font-size="8px" fill="#000000" x="62.64289185390071" y="3" font-family="sans-serif">所属势力</text></g><g class="relationship" transform="translate(797.4527905388231 193.84269277435527) rotate(474.92743025479547)"><path class="outline" fill="#FFE081" stroke="none" d="M 25 2.5 L 39.04272274879868 2.5 L 39.04272274879868 -2.5 L 25 -2.5 Z M 77.04272274879868 2.5 L 91.08544549759736 2.5 L 91.08544549759736 5.5 L 102.08544549759736 0 L 91.08544549759736 -5.5 L 91.08544549759736 -2.5 L 77.04272274879868 -2.5 Z"/><text text-anchor="middle" pointer-events="none" font-size="8px" fill="#000000" x="58.04272274879868" y="3" transform="rotate(180 58.04272274879868 0)" font-family="sans-serif">所属势力</text></g><g class="relationship" transform="translate(179.82885949220616 -242.17524045262726) rotate(514.0583120122227)"><path class="outline" fill="#FFE081" stroke="none" d="M 25 2.5 L 47.20434742935413 2.5 L 47.20434742935413 -2.5 L 25 -2.5 Z M 85.20434742935413 2.5 L 107.40869485870826 2.5 L 107.40869485870826 5.5 L 118.40869485870826 0 L 107.40869485870826 -5.5 L 107.40869485870826 -2.5 L 85.20434742935413 -2.5 Z"/><text text-anchor="middle" pointer-events="none" font-size="8px" fill="#000000" x="66.20434742935413" y="3" transform="rotate(180 66.20434742935413 0)" font-family="sans-serif">所属势力</text></g><g class="relationship" transform="translate(102.34085438965121 -282.1517746110819) rotate(478.77726035012023)"><path class="outline" fill="#FFE081" stroke="none" d="M 25 2.5 L 32.213628516426176 2.5 L 32.213628516426176 -2.5 L 25 -2.5 Z M 70.21362851642618 2.5 L 77.42725703285235 2.5 L 77.42725703285235 5.5 L 88.42725703285235 0 L 77.42725703285235 -5.5 L 77.42725703285235 -2.5 L 70.21362851642618 -2.5 Z"/><text text-anchor="middle" pointer-events="none" font-size="8px" fill="#000000" x="51.213628516426176" y="3" transform="rotate(180 51.213628516426176 0)" font-family="sans-serif">所属势力</text></g><g class="relationship" transform="translate(179.59293982357417 -178.97697804425036) rotate(538.8084355857188)"><path class="outline" fill="#FFE081" stroke="none" d="M 25 2.5 L 39.49823710913142 2.5 L 39.49823710913142 -2.5 L 25 -2.5 Z M 77.49823710913142 2.5 L 91.99647421826285 2.5 L 91.99647421826285 5.5 L 102.99647421826285 0 L 91.99647421826285 -5.5 L 91.99647421826285 -2.5 L 77.49823710913142 -2.5 Z"/><text text-anchor="middle" pointer-events="none" font-size="8px" fill="#000000" x="58.49823710913142" y="3" transform="rotate(180 58.49823710913142 0)" font-family="sans-serif">所属势力</text></g><g class="relationship" transform="translate(92.23591190803438 -341.2908481205106) rotate(466.24318434636365)"><path class="outline" fill="#FFE081" stroke="none" d="M 25 2.5 L 57.748567994581975 2.5 L 57.748567994581975 -2.5 L 25 -2.5 Z M 95.74856799458198 2.5 L 128.49713598916395 2.5 L 128.49713598916395 5.5 L 139.49713598916395 0 L 128.49713598916395 -5.5 L 128.49713598916395 -2.5 L 95.74856799458198 -2.5 Z"/><text text-anchor="middle" pointer-events="none" font-size="8px" fill="#000000" x="76.74856799458198" y="3" transform="rotate(180 76.74856799458198 0)" font-family="sans-serif">所属势力</text></g><g class="relationship" transform="translate(159.1741862395614 -301.3845815985592) rotate(492.57467020992914)"><path class="outline" fill="#FFE081" stroke="none" d="M 25 2.5 L 56.775746861634886 2.5 L 56.775746861634886 -2.5 L 25 -2.5 Z M 94.77574686163489 2.5 L 126.55149372326977 2.5 L 126.55149372326977 5.5 L 137.55149372326977 0 L 126.55149372326977 -5.5 L 126.55149372326977 -2.5 L 94.77574686163489 -2.5 Z"/><text text-anchor="middle" pointer-events="none" font-size="8px" fill="#000000" x="75.77574686163489" y="3" transform="rotate(180 75.77574686163489 0)" font-family="sans-serif">所属势力</text></g><g class="relationship" transform="translate(-22.968207892658192 -308.3232979269822) rotate(423.08505574551054)"><path class="outline" fill="#FFE081" stroke="none" d="M 25 2.5 L 45.85958783016481 2.5 L 45.85958783016481 -2.5 L 25 -2.5 Z M 83.85958783016481 2.5 L 104.71917566032963 2.5 L 104.71917566032963 5.5 L 115.71917566032963 0 L 104.71917566032963 -5.5 L 104.71917566032963 -2.5 L 83.85958783016481 -2.5 Z"/><text text-anchor="middle" pointer-events="none" font-size="8px" fill="#000000" x="64.85958783016481" y="3" font-family="sans-serif">所属势力</text></g><g class="relationship" transform="translate(94.51873607816188 18.68912464588599) rotate(255.49951997552233)"><path class="outline" fill="#FFE081" stroke="none" d="M 25 2.5 L 72.37971664916002 2.5 L 72.37971664916002 -2.5 L 25 -2.5 Z M 110.37971664916002 2.5 L 157.75943329832003 2.5 L 157.75943329832003 5.5 L 168.75943329832003 0 L 157.75943329832003 -5.5 L 157.75943329832003 -2.5 L 110.37971664916002 -2.5 Z"/><text text-anchor="middle" pointer-events="none" font-size="8px" fill="#000000" x="91.37971664916002" y="3" transform="rotate(180 91.37971664916002 0)" font-family="sans-serif">所属势力</text></g><g class="relationship" transform="translate(-52.7277967409292 -249.55773463779988) rotate(397.1559034678978)"><path class="outline" fill="#FFE081" stroke="none" d="M 25 2.5 L 32.5117128790335 2.5 L 32.5117128790335 -2.5 L 25 -2.5 Z M 70.5117128790335 2.5 L 78.023425758067 2.5 L 78.023425758067 5.5 L 89.023425758067 0 L 78.023425758067 -5.5 L 78.023425758067 -2.5 L 70.5117128790335 -2.5 Z"/><text text-anchor="middle" pointer-events="none" font-size="8px" fill="#000000" x="51.5117128790335" y="3" font-family="sans-serif">所属势力</text></g><g class="relationship" transform="translate(32.984609321052424 -329.94942866628946) rotate(445.8565087525484)"><path class="outline" fill="#FFE081" stroke="none" d="M 25 2.5 L 48.84657818253936 2.5 L 48.84657818253936 -2.5 L 25 -2.5 Z M 86.84657818253936 2.5 L 110.69315636507872 2.5 L 110.69315636507872 5.5 L 121.69315636507872 0 L 110.69315636507872 -5.5 L 110.69315636507872 -2.5 L 86.84657818253936 -2.5 Z"/><text text-anchor="middle" pointer-events="none" font-size="8px" fill="#000000" x="67.84657818253936" y="3" font-family="sans-serif">所属势力</text></g><g class="relationship" transform="translate(142.64519725359173 -111.51431065517728) rotate(213.27147776238962)"><path class="outline" fill="#FFE081" stroke="none" d="M 25 2.5 L 30.66742700869699 2.5 L 30.66742700869699 -2.5 L 25 -2.5 Z M 68.66742700869699 2.5 L 74.33485401739398 2.5 L 74.33485401739398 5.5 L 85.33485401739398 0 L 74.33485401739398 -5.5 L 74.33485401739398 -2.5 L 68.66742700869699 -2.5 Z"/><text text-anchor="middle" pointer-events="none" font-size="8px" fill="#000000" x="49.66742700869699" y="3" transform="rotate(180 49.66742700869699 0)" font-family="sans-serif">所属势力</text></g><g class="relationship" transform="translate(-130.5048308520458 -145.9889902346001) rotate(350.1979716440143)"><path class="outline" fill="#FFE081" stroke="none" d="M 25 2.5 L 60.358821278396164 2.5 L 60.358821278396164 -2.5 L 25 -2.5 Z M 98.35882127839616 2.5 L 133.71764255679233 2.5 L 133.71764255679233 5.5 L 144.71764255679233 0 L 133.71764255679233 -5.5 L 133.71764255679233 -2.5 L 98.35882127839616 -2.5 Z"/><text text-anchor="middle" pointer-events="none" font-size="8px" fill="#000000" x="79.35882127839616" y="3" font-family="sans-serif">所属势力</text></g><g class="relationship" transform="translate(525.0641395354719 -65.32706332062914) rotate(316.0078977738931)"><path class="outline" fill="#FFE081" stroke="none" d="M 25 2.5 L 41.03333377705343 2.5 L 41.03333377705343 -2.5 L 25 -2.5 Z M 79.03333377705343 2.5 L 95.06666755410686 2.5 L 95.06666755410686 5.5 L 106.06666755410686 0 L 95.06666755410686 -5.5 L 95.06666755410686 -2.5 L 79.03333377705343 -2.5 Z"/><text text-anchor="middle" pointer-events="none" font-size="8px" fill="#000000" x="60.03333377705343" y="3" font-family="sans-serif">所属势力</text></g><g class="relationship" transform="translate(547.8629558892285 156.52796105951256) rotate(216.21118904358178)"><path class="outline" fill="#FFE081" stroke="none" d="M 25 2.5 L 41.770550860530804 2.5 L 41.770550860530804 -2.5 L 25 -2.5 Z M 79.7705508605308 2.5 L 96.54110172106161 2.5 L 96.54110172106161 5.5 L 107.54110172106161 0 L 96.54110172106161 -5.5 L 96.54110172106161 -2.5 L 79.7705508605308 -2.5 Z"/><text text-anchor="middle" pointer-events="none" font-size="8px" fill="#000000" x="60.770550860530804" y="3" transform="rotate(180 60.770550860530804 0)" font-family="sans-serif">所属势力</text></g><g class="relationship" transform="translate(433.8411261048748 -62.09373085841031) rotate(449.56557044224036)"><path class="outline" fill="#FFE081" stroke="none" d="M 25 2.5 L 39.69723131607303 2.5 L 39.69723131607303 -2.5 L 25 -2.5 Z M 77.69723131607303 2.5 L 92.39446263214606 2.5 L 92.39446263214606 5.5 L 103.39446263214606 0 L 92.39446263214606 -5.5 L 92.39446263214606 -2.5 L 77.69723131607303 -2.5 Z"/><text text-anchor="middle" pointer-events="none" font-size="8px" fill="#000000" x="58.69723131607303" y="3" font-family="sans-serif">所属势力</text></g><g class="relationship" transform="translate(294.4232674474098 227.3964292490121) rotate(312.4391367211396)"><path class="outline" fill="#FFE081" stroke="none" d="M 25 2.5 L 75.81553699201666 2.5 L 75.81553699201666 -2.5 L 25 -2.5 Z M 113.81553699201666 2.5 L 164.63107398403332 2.5 L 164.63107398403332 5.5 L 175.63107398403332 0 L 164.63107398403332 -5.5 L 164.63107398403332 -2.5 L 113.81553699201666 -2.5 Z"/><text text-anchor="middle" pointer-events="none" font-size="8px" fill="#000000" x="94.81553699201666" y="3" font-family="sans-serif">所属势力</text></g><g class="relationship" transform="translate(398.55889711570757 231.9481901304323) rotate(282.93135654612865)"><path class="outline" fill="#FFE081" stroke="none" d="M 25 2.5 L 52.88331494443108 2.5 L 52.88331494443108 -2.5 L 25 -2.5 Z M 90.88331494443108 2.5 L 118.76662988886216 2.5 L 118.76662988886216 5.5 L 129.76662988886216 0 L 118.76662988886216 -5.5 L 118.76662988886216 -2.5 L 90.88331494443108 -2.5 Z"/><text text-anchor="middle" pointer-events="none" font-size="8px" fill="#000000" x="71.88331494443108" y="3" font-family="sans-serif">所属势力</text></g><g class="relationship" transform="translate(488.8469177106844 166.90128042594222) rotate(239.89785628657307)"><path class="outline" fill="#FFE081" stroke="none" d="M 25 2.5 L 25.55935182789971 2.5 L 25.55935182789971 -2.5 L 25 -2.5 Z M 63.55935182789971 2.5 L 64.11870365579942 2.5 L 64.11870365579942 5.5 L 75.11870365579942 0 L 64.11870365579942 -5.5 L 64.11870365579942 -2.5 L 63.55935182789971 -2.5 Z"/><text text-anchor="middle" pointer-events="none" font-size="8px" fill="#000000" x="44.55935182789971" y="3" transform="rotate(180 44.55935182789971 0)" font-family="sans-serif">所属势力</text></g><g class="relationship" transform="translate(531.2390904524057 214.02617167854504) rotate(235.50259969351373)"><path class="outline" fill="#FFE081" stroke="none" d="M 25 2.5 L 56.824940869104026 2.5 L 56.824940869104026 -2.5 L 25 -2.5 Z M 94.82494086910403 2.5 L 126.64988173820805 2.5 L 126.64988173820805 5.5 L 137.64988173820805 0 L 126.64988173820805 -5.5 L 126.64988173820805 -2.5 L 94.82494086910403 -2.5 Z"/><text text-anchor="middle" pointer-events="none" font-size="8px" fill="#000000" x="75.82494086910403" y="3" transform="rotate(180 75.82494086910403 0)" font-family="sans-serif">所属势力</text></g><g class="relationship" transform="translate(370.68426062086746 178.9540357389225) rotate(301.3996041876365)"><path class="outline" fill="#FFE081" stroke="none" d="M 25 2.5 L 33.3495949838337 2.5 L 33.3495949838337 -2.5 L 25 -2.5 Z M 71.3495949838337 2.5 L 79.6991899676674 2.5 L 79.6991899676674 5.5 L 90.6991899676674 0 L 79.6991899676674 -5.5 L 79.6991899676674 -2.5 L 71.3495949838337 -2.5 Z"/><text text-anchor="middle" pointer-events="none" font-size="8px" fill="#000000" x="52.3495949838337" y="3" font-family="sans-serif">所属势力</text></g><g class="relationship" transform="translate(525.0641395354719 -65.32706332062914) rotate(482.95494227239226)"><path class="outline" fill="#FFE081" stroke="none" d="M 25 2.5 L 54.65079747165706 2.5 L 54.65079747165706 -2.5 L 25 -2.5 Z M 92.65079747165706 2.5 L 122.30159494331411 2.5 L 122.30159494331411 5.5 L 133.30159494331411 0 L 122.30159494331411 -5.5 L 122.30159494331411 -2.5 L 92.65079747165706 -2.5 Z"/><text text-anchor="middle" pointer-events="none" font-size="8px" fill="#000000" x="73.65079747165706" y="3" transform="rotate(180 73.65079747165706 0)" font-family="sans-serif">所属势力</text></g><g class="relationship" transform="translate(430.5797188149086 181.31313579347605) rotate(272.2858894254987)"><path class="outline" fill="#FFE081" stroke="none" d="M 25 2.5 L 25.5509673596126 2.5 L 25.5509673596126 -2.5 L 25 -2.5 Z M 63.5509673596126 2.5 L 64.1019347192252 2.5 L 64.1019347192252 5.5 L 75.1019347192252 0 L 64.1019347192252 -5.5 L 64.1019347192252 -2.5 L 63.5509673596126 -2.5 Z"/><text text-anchor="middle" pointer-events="none" font-size="8px" fill="#000000" x="44.5509673596126" y="3" font-family="sans-serif">所属势力</text></g><g class="relationship" transform="translate(472.1797305545781 224.40375093697273) rotate(256.08681384530536)"><path class="outline" fill="#FFE081" stroke="none" d="M 25 2.5 L 49.329556181038214 2.5 L 49.329556181038214 -2.5 L 25 -2.5 Z M 87.32955618103821 2.5 L 111.65911236207643 2.5 L 111.65911236207643 5.5 L 122.65911236207643 0 L 111.65911236207643 -5.5 L 111.65911236207643 -2.5 L 87.32955618103821 -2.5 Z"/><text text-anchor="middle" pointer-events="none" font-size="8px" fill="#000000" x="68.32955618103821" y="3" transform="rotate(180 68.32955618103821 0)" font-family="sans-serif">所属势力</text></g><g class="relationship" transform="translate(-304.56357289241333 -123.0378853999627) rotate(532.9548345271797)"><path class="outline" fill="#FFE081" stroke="none" d="M 25 2.5 L 49.53191496787535 2.5 L 49.53191496787535 -2.5 L 25 -2.5 Z M 87.53191496787535 2.5 L 112.0638299357507 2.5 L 112.0638299357507 5.5 L 123.0638299357507 0 L 112.0638299357507 -5.5 L 112.0638299357507 -2.5 L 87.53191496787535 -2.5 Z"/><text text-anchor="middle" pointer-events="none" font-size="8px" fill="#000000" x="68.53191496787535" y="3" transform="rotate(180 68.53191496787535 0)" font-family="sans-serif">所属势力</text></g><g class="relationship" transform="translate(-389.9177047699091 -170.33369927025575) rotate(496.1250162348625)"><path class="outline" fill="#FFE081" stroke="none" d="M 25 2.5 L 27.634298352913675 2.5 L 27.634298352913675 -2.5 L 25 -2.5 Z M 49.634298352913675 2.5 L 52.26859670582735 2.5 L 52.26859670582735 5.5 L 63.26859670582735 0 L 52.26859670582735 -5.5 L 52.26859670582735 -2.5 L 49.634298352913675 -2.5 Z"/><text text-anchor="middle" pointer-events="none" font-size="8px" fill="#000000" x="38.634298352913675" y="3" transform="rotate(180 38.634298352913675 0)" font-family="sans-serif">所…</text></g><g class="relationship" transform="translate(-339.9934919227113 -23.156533714285825) rotate(214.18565801125567)"><path class="outline" fill="#FFE081" stroke="none" d="M 25 2.5 L 43.65299426248136 2.5 L 43.65299426248136 -2.5 L 25 -2.5 Z M 81.65299426248136 2.5 L 100.30598852496271 2.5 L 100.30598852496271 5.5 L 111.30598852496271 0 L 100.30598852496271 -5.5 L 100.30598852496271 -2.5 L 81.65299426248136 -2.5 Z"/><text text-anchor="middle" pointer-events="none" font-size="8px" fill="#000000" x="62.65299426248136" y="3" transform="rotate(180 62.65299426248136 0)" font-family="sans-serif">所属势力</text></g><g class="relationship" transform="translate(-372.3126222724759 -227.60121395639123) rotate(485.0199354247186)"><path class="outline" fill="#FFE081" stroke="none" d="M 25 2.5 L 47.2388168249381 2.5 L 47.2388168249381 -2.5 L 25 -2.5 Z M 85.2388168249381 2.5 L 107.4776336498762 2.5 L 107.4776336498762 5.5 L 118.4776336498762 0 L 107.4776336498762 -5.5 L 107.4776336498762 -2.5 L 85.2388168249381 -2.5 Z"/><text text-anchor="middle" pointer-events="none" font-size="8px" fill="#000000" x="66.2388168249381" y="3" transform="rotate(180 66.2388168249381 0)" font-family="sans-serif">所属势力</text></g><g class="relationship" transform="translate(-398.94095588427473 -12.174042891016526) rotate(236.82170512469082)"><path class="outline" fill="#FFE081" stroke="none" d="M 25 2.5 L 26.58081060597062 2.5 L 26.58081060597062 -2.5 L 25 -2.5 Z M 64.58081060597061 2.5 L 66.16162121194124 2.5 L 66.16162121194124 5.5 L 77.16162121194124 0 L 66.16162121194124 -5.5 L 66.16162121194124 -2.5 L 64.58081060597061 -2.5 Z"/><text text-anchor="middle" pointer-events="none" font-size="8px" fill="#000000" x="45.58081060597062" y="3" transform="rotate(180 45.58081060597062 0)" font-family="sans-serif">所属势力</text></g><g class="relationship" transform="translate(-430.7463286924604 -214.24928440688353) rotate(464.34563110617773)"><path class="outline" fill="#FFE081" stroke="none" d="M 25 2.5 L 28.670643894556854 2.5 L 28.670643894556854 -2.5 L 25 -2.5 Z M 66.67064389455686 2.5 L 70.34128778911371 2.5 L 70.34128778911371 5.5 L 81.34128778911371 0 L 70.34128778911371 -5.5 L 70.34128778911371 -2.5 L 66.67064389455686 -2.5 Z"/><text text-anchor="middle" pointer-events="none" font-size="8px" fill="#000000" x="47.670643894556854" y="3" transform="rotate(180 47.670643894556854 0)" font-family="sans-serif">所属势力</text></g><g class="relationship" transform="translate(-378.9844588696364 -68.71989350833444) rotate(203.78053554342682)"><path class="outline" fill="#FFE081" stroke="none" d="M 25 2.5 L 34.443962333859936 2.5 L 34.443962333859936 -2.5 L 25 -2.5 Z M 34.443962333859936 2.5 L 43.88792466771987 2.5 L 43.88792466771987 5.5 L 54.88792466771987 0 L 43.88792466771987 -5.5 L 43.88792466771987 -2.5 L 34.443962333859936 -2.5 Z"/><text text-anchor="middle" pointer-events="none" font-size="8px" fill="#000000" x="34.443962333859936" y="3" transform="rotate(180 34.443962333859936 0)" font-family="sans-serif"/></g><g class="relationship" transform="translate(-579.4349673909212 -141.44262770483562) rotate(377.28218819772326)"><path class="outline" fill="#FFE081" stroke="none" d="M 25 2.5 L 34.839334815881124 2.5 L 34.839334815881124 -2.5 L 25 -2.5 Z M 72.83933481588113 2.5 L 82.67866963176225 2.5 L 82.67866963176225 5.5 L 93.67866963176225 0 L 82.67866963176225 -5.5 L 82.67866963176225 -2.5 L 72.83933481588113 -2.5 Z"/><text text-anchor="middle" pointer-events="none" font-size="8px" fill="#000000" x="53.839334815881124" y="3" font-family="sans-serif">所属势力</text></g><g class="relationship" transform="translate(-536.39439917184 33.34357163524577) rotate(299.4241420233034)"><path class="outline" fill="#FFE081" stroke="none" d="M 25 2.5 L 50.56756637386788 2.5 L 50.56756637386788 -2.5 L 25 -2.5 Z M 88.56756637386788 2.5 L 114.13513274773575 2.5 L 114.13513274773575 5.5 L 125.13513274773575 0 L 114.13513274773575 -5.5 L 114.13513274773575 -2.5 L 88.56756637386788 -2.5 Z"/><text text-anchor="middle" pointer-events="none" font-size="8px" fill="#000000" x="69.56756637386788" y="3" font-family="sans-serif">所属势力</text></g><g class="relationship" transform="translate(-291.4323887671757 272.923779087168) rotate(332.04247869396625)"><path class="outline" fill="#FFE081" stroke="none" d="M 25 2.5 L 33.9881050071042 2.5 L 33.9881050071042 -2.5 L 25 -2.5 Z M 71.9881050071042 2.5 L 80.9762100142084 2.5 L 80.9762100142084 5.5 L 91.9762100142084 0 L 80.9762100142084 -5.5 L 80.9762100142084 -2.5 L 71.9881050071042 -2.5 Z"/><text text-anchor="middle" pointer-events="none" font-size="8px" fill="#000000" x="52.9881050071042" y="3" font-family="sans-serif">所属势力</text></g><g class="relationship" transform="translate(-239.99716402480962 338.8216137167126) rotate(295.21674816087705)"><path class="outline" fill="#FFE081" stroke="none" d="M 25 2.5 L 40.42139666124466 2.5 L 40.42139666124466 -2.5 L 25 -2.5 Z M 78.42139666124466 2.5 L 93.84279332248931 2.5 L 93.84279332248931 5.5 L 104.84279332248931 0 L 93.84279332248931 -5.5 L 93.84279332248931 -2.5 L 78.42139666124466 -2.5 Z"/><text text-anchor="middle" pointer-events="none" font-size="8px" fill="#000000" x="59.42139666124466" y="3" font-family="sans-serif">所属势力</text></g><g class="relationship" transform="translate(-45.832013007681454 288.5882470981396) rotate(208.62006000274533)"><path class="outline" fill="#FFE081" stroke="none" d="M 25 2.5 L 49.01631473367756 2.5 L 49.01631473367756 -2.5 L 25 -2.5 Z M 87.01631473367756 2.5 L 111.03262946735512 2.5 L 111.03262946735512 5.5 L 122.03262946735512 0 L 111.03262946735512 -5.5 L 111.03262946735512 -2.5 L 87.01631473367756 -2.5 Z"/><text text-anchor="middle" pointer-events="none" font-size="8px" fill="#000000" x="68.01631473367756" y="3" transform="rotate(180 68.01631473367756 0)" font-family="sans-serif">所属势力</text></g><g class="relationship" transform="translate(-236.39771574903494 44.0100914480803) rotate(432.1529051375445)"><path class="outline" fill="#FFE081" stroke="none" d="M 25 2.5 L 61.33983289053971 2.5 L 61.33983289053971 -2.5 L 25 -2.5 Z M 99.33983289053971 2.5 L 135.67966578107942 2.5 L 135.67966578107942 5.5 L 146.67966578107942 0 L 135.67966578107942 -5.5 L 135.67966578107942 -2.5 L 99.33983289053971 -2.5 Z"/><text text-anchor="middle" pointer-events="none" font-size="8px" fill="#000000" x="80.33983289053971" y="3" font-family="sans-serif">所属势力</text></g><g class="relationship" transform="translate(-166.31195615475764 347.36667946563) rotate(263.4827159906851)"><path class="outline" fill="#FFE081" stroke="none" d="M 25 2.5 L 38.581609320591255 2.5 L 38.581609320591255 -2.5 L 25 -2.5 Z M 76.58160932059126 2.5 L 90.16321864118251 2.5 L 90.16321864118251 5.5 L 101.16321864118251 0 L 90.16321864118251 -5.5 L 90.16321864118251 -2.5 L 76.58160932059126 -2.5 Z"/><text text-anchor="middle" pointer-events="none" font-size="8px" fill="#000000" x="57.581609320591255" y="3" transform="rotate(180 57.581609320591255 0)" font-family="sans-serif">所属势力</text></g><g class="relationship" transform="translate(-228.3986154201655 -223.64322480652945) rotate(487.1281526964597)"><path class="outline" fill="#57C7E3" stroke="none" d="M 25 2.5 L 42.592263915356156 2.5 L 42.592263915356156 -2.5 L 25 -2.5 Z M 72.59226391535616 2.5 L 90.18452783071231 2.5 L 90.18452783071231 5.5 L 101.18452783071231 0 L 90.18452783071231 -5.5 L 90.18452783071231 -2.5 L 72.59226391535616 -2.5 Z"/><text text-anchor="middle" pointer-events="none" font-size="8px" fill="#000000" x="57.592263915356156" y="3" transform="rotate(180 57.592263915356156 0)" font-family="sans-serif">效忠于</text></g><g class="relationship" transform="translate(-389.9177047699091 -170.33369927025575) rotate(388.9913961769194)"><path class="outline" fill="#57C7E3" stroke="none" d="M 25 2.5 L 28.29093624387204 2.5 L 28.29093624387204 -2.5 L 25 -2.5 Z M 58.29093624387204 2.5 L 61.58187248774408 2.5 L 61.58187248774408 5.5 L 72.58187248774408 0 L 61.58187248774408 -5.5 L 61.58187248774408 -2.5 L 58.29093624387204 -2.5 Z"/><text text-anchor="middle" pointer-events="none" font-size="8px" fill="#000000" x="43.29093624387204" y="3" font-family="sans-serif">效忠于</text></g><g class="relationship" transform="translate(-339.9934919227113 -23.156533714285825) rotate(289.5306168040623)"><path class="outline" fill="#57C7E3" stroke="none" d="M 25 2.5 L 32.48953570529595 2.5 L 32.48953570529595 -2.5 L 25 -2.5 Z M 62.48953570529595 2.5 L 69.9790714105919 2.5 L 69.9790714105919 5.5 L 80.9790714105919 0 L 69.9790714105919 -5.5 L 69.9790714105919 -2.5 L 62.48953570529595 -2.5 Z"/><text text-anchor="middle" pointer-events="none" font-size="8px" fill="#000000" x="47.48953570529595" y="3" font-family="sans-serif">效忠于</text></g><g class="relationship" transform="translate(-372.3126222724759 -227.60121395639123) rotate(417.05984509422336)"><path class="outline" fill="#57C7E3" stroke="none" d="M 25 2.5 L 41.79651549384961 2.5 L 41.79651549384961 -2.5 L 25 -2.5 Z M 71.79651549384961 2.5 L 88.59303098769922 2.5 L 88.59303098769922 5.5 L 99.59303098769922 0 L 88.59303098769922 -5.5 L 88.59303098769922 -2.5 L 71.79651549384961 -2.5 Z"/><text text-anchor="middle" pointer-events="none" font-size="8px" fill="#000000" x="56.79651549384961" y="3" font-family="sans-serif">效忠于</text></g><g class="relationship" transform="translate(-398.94095588427473 -12.174042891016526) rotate(310.40744944888456)"><path class="outline" fill="#57C7E3" stroke="none" d="M 25 2.5 L 52.29746217458565 2.5 L 52.29746217458565 -2.5 L 25 -2.5 Z M 82.29746217458565 2.5 L 109.5949243491713 2.5 L 109.5949243491713 5.5 L 120.5949243491713 0 L 109.5949243491713 -5.5 L 109.5949243491713 -2.5 L 82.29746217458565 -2.5 Z"/><text text-anchor="middle" pointer-events="none" font-size="8px" fill="#000000" x="67.29746217458565" y="3" font-family="sans-serif">效忠于</text></g><g class="relationship" transform="translate(-430.7463286924604 -214.24928440688353) rotate(395.861342629652)"><path class="outline" fill="#57C7E3" stroke="none" d="M 25 2.5 L 57.34858246958326 2.5 L 57.34858246958326 -2.5 L 25 -2.5 Z M 87.34858246958326 2.5 L 119.69716493916653 2.5 L 119.69716493916653 5.5 L 130.69716493916653 0 L 119.69716493916653 -5.5 L 119.69716493916653 -2.5 L 87.34858246958326 -2.5 Z"/><text text-anchor="middle" pointer-events="none" font-size="8px" fill="#000000" x="72.34858246958326" y="3" font-family="sans-serif">效忠于</text></g><g class="relationship" transform="translate(-378.9844588696364 -68.71989350833444) rotate(323.8752043274445)"><path class="outline" fill="#57C7E3" stroke="none" d="M 25 2.5 L 25.567647304734997 2.5 L 25.567647304734997 -2.5 L 25 -2.5 Z M 55.567647304735 2.5 L 56.135294609469994 2.5 L 56.135294609469994 5.5 L 67.13529460947 0 L 56.135294609469994 -5.5 L 56.135294609469994 -2.5 L 55.567647304735 -2.5 Z"/><text text-anchor="middle" pointer-events="none" font-size="8px" fill="#000000" x="40.567647304735" y="3" font-family="sans-serif">效忠于</text></g><g class="relationship" transform="translate(-236.39771574903494 44.0100914480803) rotate(247.80151701837116)"><path class="outline" fill="#57C7E3" stroke="none" d="M 25 2.5 L 69.71032458803673 2.5 L 69.71032458803673 -2.5 L 25 -2.5 Z M 99.71032458803673 2.5 L 144.42064917607345 2.5 L 144.42064917607345 5.5 L 155.42064917607345 0 L 144.42064917607345 -5.5 L 144.42064917607345 -2.5 L 99.71032458803673 -2.5 Z"/><text text-anchor="middle" pointer-events="none" font-size="8px" fill="#000000" x="84.71032458803673" y="3" transform="rotate(180 84.71032458803673 0)" font-family="sans-serif">效忠于</text></g><g class="relationship" transform="translate(-130.5048308520458 -145.9889902346001) rotate(532.488404737692)"><path class="outline" fill="#57C7E3" stroke="none" d="M 25 2.5 L 67.28268464481722 2.5 L 67.28268464481722 -2.5 L 25 -2.5 Z M 97.28268464481722 2.5 L 139.56536928963445 2.5 L 139.56536928963445 5.5 L 150.56536928963445 0 L 139.56536928963445 -5.5 L 139.56536928963445 -2.5 L 97.28268464481722 -2.5 Z"/><text text-anchor="middle" pointer-events="none" font-size="8px" fill="#000000" x="82.28268464481722" y="3" transform="rotate(180 82.28268464481722 0)" font-family="sans-serif">效忠于</text></g><g class="relationship" transform="translate(-288.47442784376506 -266.8525410738047) rotate(456.3833749293354)"><path class="outline" fill="#57C7E3" stroke="none" d="M 25 2.5 L 51.85591851220978 2.5 L 51.85591851220978 -2.5 L 25 -2.5 Z M 81.85591851220978 2.5 L 108.71183702441957 2.5 L 108.71183702441957 5.5 L 119.71183702441957 0 L 108.71183702441957 -5.5 L 108.71183702441957 -2.5 L 81.85591851220978 -2.5 Z"/><text text-anchor="middle" pointer-events="none" font-size="8px" fill="#000000" x="66.85591851220978" y="3" transform="rotate(180 66.85591851220978 0)" font-family="sans-serif">效忠于</text></g><g class="relationship" transform="translate(294.4232674474098 227.3964292490121) rotate(518.9928936528622)"><path class="outline" fill="#57C7E3" stroke="none" d="M 25 2.5 L 81.46316104208894 2.5 L 81.46316104208894 -2.5 L 25 -2.5 Z M 111.46316104208894 2.5 L 167.92632208417788 2.5 L 167.92632208417788 5.5 L 178.92632208417788 0 L 167.92632208417788 -5.5 L 167.92632208417788 -2.5 L 111.46316104208894 -2.5 Z"/><text text-anchor="middle" pointer-events="none" font-size="8px" fill="#000000" x="96.46316104208894" y="3" transform="rotate(180 96.46316104208894 0)" font-family="sans-serif">效忠于</text></g><g class="relationship" transform="translate(41.406575901053344 213.40759445911365) rotate(414.273374911179)"><path class="outline" fill="#57C7E3" stroke="none" d="M 25 2.5 L 33.14116076653401 2.5 L 33.14116076653401 -2.5 L 25 -2.5 Z M 63.14116076653401 2.5 L 71.28232153306801 2.5 L 71.28232153306801 5.5 L 82.28232153306801 0 L 71.28232153306801 -5.5 L 71.28232153306801 -2.5 L 63.14116076653401 -2.5 Z"/><text text-anchor="middle" pointer-events="none" font-size="8px" fill="#000000" x="48.14116076653401" y="3" font-family="sans-serif">效忠于</text></g><g class="relationship" transform="translate(62.92946758434788 451.47929234176155) rotate(285.235782486251)"><path class="outline" fill="#57C7E3" stroke="none" d="M 25 2.5 L 57.73920390415303 2.5 L 57.73920390415303 -2.5 L 25 -2.5 Z M 87.73920390415303 2.5 L 120.47840780830606 2.5 L 120.47840780830606 5.5 L 131.47840780830606 0 L 120.47840780830606 -5.5 L 120.47840780830606 -2.5 L 87.73920390415303 -2.5 Z"/><text text-anchor="middle" pointer-events="none" font-size="8px" fill="#000000" x="72.73920390415303" y="3" font-family="sans-serif">效忠于</text></g><g class="relationship" transform="translate(-45.832013007681454 288.5882470981396) rotate(364.54422966638504)"><path class="outline" fill="#57C7E3" stroke="none" d="M 25 2.5 L 54.67768496543832 2.5 L 54.67768496543832 -2.5 L 25 -2.5 Z M 84.67768496543832 2.5 L 114.35536993087663 2.5 L 114.35536993087663 5.5 L 125.35536993087663 0 L 114.35536993087663 -5.5 L 114.35536993087663 -2.5 L 84.67768496543832 -2.5 Z"/><text text-anchor="middle" pointer-events="none" font-size="8px" fill="#000000" x="69.67768496543832" y="3" font-family="sans-serif">效忠于</text></g><g class="relationship" transform="translate(161.88191365880962 355.80635471828066) rotate(223.72120173390897)"><path class="outline" fill="#57C7E3" stroke="none" d="M 25 2.5 L 34.50988498288516 2.5 L 34.50988498288516 -2.5 L 25 -2.5 Z M 34.50988498288516 2.5 L 44.01976996577032 2.5 L 44.01976996577032 5.5 L 55.01976996577032 0 L 44.01976996577032 -5.5 L 44.01976996577032 -2.5 L 34.50988498288516 -2.5 Z"/><text text-anchor="middle" pointer-events="none" font-size="8px" fill="#000000" x="34.50988498288516" y="3" transform="rotate(180 34.50988498288516 0)" font-family="sans-serif"/></g><g class="relationship" transform="translate(197.98228411165994 301.8517368125499) rotate(180.82404028413595)"><path class="outline" fill="#57C7E3" stroke="none" d="M 25 2.5 L 26.470644718033725 2.5 L 26.470644718033725 -2.5 L 25 -2.5 Z M 56.470644718033725 2.5 L 57.94128943606745 2.5 L 57.94128943606745 5.5 L 68.94128943606745 0 L 57.94128943606745 -5.5 L 57.94128943606745 -2.5 L 56.470644718033725 -2.5 Z"/><text text-anchor="middle" pointer-events="none" font-size="8px" fill="#000000" x="41.470644718033725" y="3" transform="rotate(180 41.470644718033725 0)" font-family="sans-serif">效忠于</text></g><g class="relationship" transform="translate(525.0624190886672 428.90080496616906) rotate(236.4244841756128)"><path class="outline" fill="#57C7E3" stroke="none" d="M 25 2.5 L 43.50336662720643 2.5 L 43.50336662720643 -2.5 L 25 -2.5 Z M 73.50336662720643 2.5 L 92.00673325441286 2.5 L 92.00673325441286 5.5 L 103.00673325441286 0 L 92.00673325441286 -5.5 L 92.00673325441286 -2.5 L 73.50336662720643 -2.5 Z"/><text text-anchor="middle" pointer-events="none" font-size="8px" fill="#000000" x="58.50336662720643" y="3" transform="rotate(180 58.50336662720643 0)" font-family="sans-serif">效忠于</text></g><g class="relationship" transform="translate(547.8629558892285 156.52796105951256) rotate(479.4557773473374)"><path class="outline" fill="#57C7E3" stroke="none" d="M 25 2.5 L 74.66268409268017 2.5 L 74.66268409268017 -2.5 L 25 -2.5 Z M 104.66268409268017 2.5 L 154.32536818536033 2.5 L 154.32536818536033 5.5 L 165.32536818536033 0 L 154.32536818536033 -5.5 L 154.32536818536033 -2.5 L 104.66268409268017 -2.5 Z"/><text text-anchor="middle" pointer-events="none" font-size="8px" fill="#000000" x="89.66268409268017" y="3" transform="rotate(180 89.66268409268017 0)" font-family="sans-serif">效忠于</text></g><g class="relationship" transform="translate(294.4232674474098 227.3964292490121) rotate(390.6852784660955)"><path class="outline" fill="#57C7E3" stroke="none" d="M 25 2.5 L 72.43602138610277 2.5 L 72.43602138610277 -2.5 L 25 -2.5 Z M 102.43602138610277 2.5 L 149.87204277220553 2.5 L 149.87204277220553 5.5 L 160.87204277220553 0 L 149.87204277220553 -5.5 L 149.87204277220553 -2.5 L 102.43602138610277 -2.5 Z"/><text text-anchor="middle" pointer-events="none" font-size="8px" fill="#000000" x="87.43602138610277" y="3" font-family="sans-serif">效忠于</text></g><g class="relationship" transform="translate(398.55889711570757 231.9481901304323) rotate(418.3279868721861)"><path class="outline" fill="#57C7E3" stroke="none" d="M 25 2.5 L 32.55267040660692 2.5 L 32.55267040660692 -2.5 L 25 -2.5 Z M 62.55267040660692 2.5 L 70.10534081321384 2.5 L 70.10534081321384 5.5 L 81.10534081321384 0 L 70.10534081321384 -5.5 L 70.10534081321384 -2.5 L 62.55267040660692 -2.5 Z"/><text text-anchor="middle" pointer-events="none" font-size="8px" fill="#000000" x="47.55267040660692" y="3" font-family="sans-serif">效忠于</text></g><g class="relationship" transform="translate(488.8469177106844 166.90128042594222) rotate(462.5480000833115)"><path class="outline" fill="#57C7E3" stroke="none" d="M 25 2.5 L 59.075583360454715 2.5 L 59.075583360454715 -2.5 L 25 -2.5 Z M 89.07558336045471 2.5 L 123.15116672090943 2.5 L 123.15116672090943 5.5 L 134.15116672090943 0 L 123.15116672090943 -5.5 L 123.15116672090943 -2.5 L 89.07558336045471 -2.5 Z"/><text text-anchor="middle" pointer-events="none" font-size="8px" fill="#000000" x="74.07558336045471" y="3" transform="rotate(180 74.07558336045471 0)" font-family="sans-serif">效忠于</text></g><g class="relationship" transform="translate(531.2390904524057 214.02617167854504) rotate(485.42024004668554)"><path class="outline" fill="#57C7E3" stroke="none" d="M 25 2.5 L 45.90187487010938 2.5 L 45.90187487010938 -2.5 L 25 -2.5 Z M 75.90187487010938 2.5 L 96.80374974021876 2.5 L 96.80374974021876 5.5 L 107.80374974021876 0 L 96.80374974021876 -5.5 L 96.80374974021876 -2.5 L 75.90187487010938 -2.5 Z"/><text text-anchor="middle" pointer-events="none" font-size="8px" fill="#000000" x="60.90187487010938" y="3" transform="rotate(180 60.90187487010938 0)" font-family="sans-serif">效忠于</text></g><g class="relationship" transform="translate(370.68426062086746 178.9540357389225) rotate(419.7447631005693)"><path class="outline" fill="#57C7E3" stroke="none" d="M 25 2.5 L 62.44670638402329 2.5 L 62.44670638402329 -2.5 L 25 -2.5 Z M 92.44670638402329 2.5 L 129.89341276804657 2.5 L 129.89341276804657 5.5 L 140.89341276804657 0 L 129.89341276804657 -5.5 L 129.89341276804657 -2.5 L 92.44670638402329 -2.5 Z"/><text text-anchor="middle" pointer-events="none" font-size="8px" fill="#000000" x="77.44670638402329" y="3" font-family="sans-serif">效忠于</text></g><g class="relationship" transform="translate(430.5797188149086 181.31313579347605) rotate(440.4582798126059)"><path class="outline" fill="#57C7E3" stroke="none" d="M 25 2.5 L 50.95754405994788 2.5 L 50.95754405994788 -2.5 L 25 -2.5 Z M 80.95754405994788 2.5 L 106.91508811989576 2.5 L 106.91508811989576 5.5 L 117.91508811989576 0 L 106.91508811989576 -5.5 L 106.91508811989576 -2.5 L 80.95754405994788 -2.5 Z"/><text text-anchor="middle" pointer-events="none" font-size="8px" fill="#000000" x="65.95754405994788" y="3" font-family="sans-serif">效忠于</text></g><g class="relationship" transform="translate(603.3584183757062 358.3599685426832) rotate(193.61477637429073)"><path class="outline" fill="#57C7E3" stroke="none" d="M 25 2.5 L 56.19936494577661 2.5 L 56.19936494577661 -2.5 L 25 -2.5 Z M 86.19936494577661 2.5 L 117.39872989155322 2.5 L 117.39872989155322 5.5 L 128.39872989155322 0 L 117.39872989155322 -5.5 L 117.39872989155322 -2.5 L 86.19936494577661 -2.5 Z"/><text text-anchor="middle" pointer-events="none" font-size="8px" fill="#000000" x="71.19936494577661" y="3" transform="rotate(180 71.19936494577661 0)" font-family="sans-serif">效忠于</text></g><g class="relationship" transform="translate(472.1797305545781 224.40375093697273) rotate(460.372383850439)"><path class="outline" fill="#57C7E3" stroke="none" d="M 25 2.5 L 29.236406977514797 2.5 L 29.236406977514797 -2.5 L 25 -2.5 Z M 59.2364069775148 2.5 L 63.472813955029594 2.5 L 63.472813955029594 5.5 L 74.4728139550296 0 L 63.472813955029594 -5.5 L 63.472813955029594 -2.5 L 59.2364069775148 -2.5 Z"/><text text-anchor="middle" pointer-events="none" font-size="8px" fill="#000000" x="44.2364069775148" y="3" transform="rotate(180 44.2364069775148 0)" font-family="sans-serif">效忠于</text></g><g class="relationship" transform="translate(374.38450083478295 427.58623950275) rotate(307.17647573033116)"><path class="outline" fill="#57C7E3" stroke="none" d="M 25 2.5 L 45.600728043645276 2.5 L 45.600728043645276 -2.5 L 25 -2.5 Z M 75.60072804364528 2.5 L 96.20145608729055 2.5 L 96.20145608729055 5.5 L 107.20145608729055 0 L 96.20145608729055 -5.5 L 96.20145608729055 -2.5 L 75.60072804364528 -2.5 Z"/><text text-anchor="middle" pointer-events="none" font-size="8px" fill="#000000" x="60.600728043645276" y="3" font-family="sans-serif">效忠于</text></g></g><g class="layer nodes"><g class="node" transform="translate(-536.39439917184,33.34357163524577)"><circle class="outline" cx="0" cy="0" r="25" fill="#ECB5C9" stroke="#da7298" stroke-width="2px"/><text text-anchor="middle" pointer-events="none" font-family="sans-serif" dy="1.5625" font-size="25" fill="#604A0E"/><text text-anchor="middle" pointer-events="none" y="5" font-size="10px" fill="#604A0E" font-family="sans-serif"> 张燕</text></g><g class="node" transform="translate(-559.9975382187762,181.61226581533379)"><circle class="outline" cx="0" cy="0" r="25" fill="#ECB5C9" stroke="#da7298" stroke-width="2px"/><text text-anchor="middle" pointer-events="none" font-family="sans-serif" dy="1.5625" font-size="25" fill="#604A0E"/><text text-anchor="middle" pointer-events="none" y="5" font-size="10px" fill="#604A0E" font-family="sans-serif"> 张角</text></g><g class="node" transform="translate(-213.547215523816,706.9710868441331)"><circle class="outline" cx="0" cy="0" r="25" fill="#ECB5C9" stroke="#da7298" stroke-width="2px"/><text text-anchor="middle" pointer-events="none" font-family="sans-serif" dy="1.5625" font-size="25" fill="#604A0E"/><text text-anchor="middle" pointer-events="none" y="5" font-size="10px" fill="#604A0E" font-family="sans-serif"> 张勋</text></g><g class="node" transform="translate(-118.63866243220153,768.5153630135535)"><circle class="outline" cx="0" cy="0" r="32.5" fill="#8DCC93" stroke="#5db665" stroke-width="2px"/><text text-anchor="middle" pointer-events="none" font-family="sans-serif" dy="2.03125" font-size="32.5" fill="#604A0E"/><text text-anchor="middle" pointer-events="none" y="5" font-size="10px" fill="#604A0E" font-family="sans-serif"> 袁术</text></g><g class="node" transform="translate(-546.1807108802866,316.60412318305157)"><circle class="outline" cx="0" cy="0" r="32.5" fill="#8DCC93" stroke="#5db665" stroke-width="2px"/><text text-anchor="middle" pointer-events="none" font-family="sans-serif" dy="2.03125" font-size="32.5" fill="#604A0E"/><text text-anchor="middle" pointer-events="none" y="5" font-size="10px" fill="#604A0E" font-family="sans-serif"> 起义军</text></g><g class="node" transform="translate(-468.25125832072047,416.8488105913527)"><circle class="outline" cx="0" cy="0" r="25" fill="#ECB5C9" stroke="#da7298" stroke-width="2px"/><text text-anchor="middle" pointer-events="none" font-family="sans-serif" dy="1.5625" font-size="25" fill="#604A0E"/><text text-anchor="middle" pointer-events="none" y="5" font-size="10px" fill="#604A0E" font-family="sans-serif"> 张梁</text></g><g class="node" transform="translate(-558.8909141183466,436.89809693218064)"><circle class="outline" cx="0" cy="0" r="25" fill="#ECB5C9" stroke="#da7298" stroke-width="2px"/><text text-anchor="middle" pointer-events="none" font-family="sans-serif" dy="1.5625" font-size="25" fill="#604A0E"/><text text-anchor="middle" pointer-events="none" y="5" font-size="10px" fill="#604A0E" font-family="sans-serif"> 张宝</text></g><g class="node" transform="translate(603.3584183757062,358.3599685426832)"><circle class="outline" cx="0" cy="0" r="25" fill="#ECB5C9" stroke="#da7298" stroke-width="2px"/><text text-anchor="middle" pointer-events="none" font-family="sans-serif" dy="1.5625" font-size="25" fill="#604A0E"/><text text-anchor="middle" pointer-events="none" y="5" font-size="10px" fill="#604A0E" font-family="sans-serif"> 张松</text></g><g class="node" transform="translate(669.3781817563981,475.2434769520754)"><circle class="outline" cx="0" cy="0" r="32.5" fill="#8DCC93" stroke="#5db665" stroke-width="2px"/><text text-anchor="middle" pointer-events="none" font-family="sans-serif" dy="2.03125" font-size="32.5" fill="#604A0E"/><text text-anchor="middle" pointer-events="none" y="5" font-size="10px" fill="#604A0E" font-family="sans-serif">  蜀</text></g><g class="node" transform="translate(294.4232674474098,227.3964292490121)"><circle class="outline" cx="0" cy="0" r="25" fill="#ECB5C9" stroke="#da7298" stroke-width="2px"/><text text-anchor="middle" pointer-events="none" font-family="sans-serif" dy="1.5625" font-size="25" fill="#604A0E"/><text text-anchor="middle" pointer-events="none" y="5" font-size="10px" fill="#604A0E" font-family="sans-serif"> 张达</text></g><g class="node" transform="translate(154.27634866466397,192.17521283598586)"><circle class="outline" cx="0" cy="0" r="32.5" fill="#8DCC93" stroke="#5db665" stroke-width="2px"/><text text-anchor="middle" pointer-events="none" font-family="sans-serif" dy="2.03125" font-size="32.5" fill="#604A0E"/><text text-anchor="middle" pointer-events="none" y="5" font-size="10px" fill="#604A0E" font-family="sans-serif"> 东吴</text></g><g class="node" transform="translate(41.406575901053344,213.40759445911365)"><circle class="outline" cx="0" cy="0" r="25" fill="#ECB5C9" stroke="#da7298" stroke-width="2px"/><text text-anchor="middle" pointer-events="none" font-family="sans-serif" dy="1.5625" font-size="25" fill="#604A0E"/><text text-anchor="middle" pointer-events="none" y="5" font-size="10px" fill="#604A0E" font-family="sans-serif"> 张纮</text></g><g class="node" transform="translate(94.51873607816188,18.68912464588599)"><circle class="outline" cx="0" cy="0" r="25" fill="#ECB5C9" stroke="#da7298" stroke-width="2px"/><text text-anchor="middle" pointer-events="none" font-family="sans-serif" dy="1.5625" font-size="25" fill="#604A0E"/><text text-anchor="middle" pointer-events="none" y="5" font-size="10px" fill="#604A0E" font-family="sans-serif"> 张温</text></g><g class="node" transform="translate(161.88191365880962,355.80635471828066)"><circle class="outline" cx="0" cy="0" r="25" fill="#ECB5C9" stroke="#da7298" stroke-width="2px"/><text text-anchor="middle" pointer-events="none" font-family="sans-serif" dy="1.5625" font-size="25" fill="#604A0E"/><text text-anchor="middle" pointer-events="none" y="5" font-size="10px" fill="#604A0E" font-family="sans-serif"> 张昭</text></g><g class="node" transform="translate(197.98228411165994,301.8517368125499)"><circle class="outline" cx="0" cy="0" r="25" fill="#ECB5C9" stroke="#da7298" stroke-width="2px"/><text text-anchor="middle" pointer-events="none" font-family="sans-serif" dy="1.5625" font-size="25" fill="#604A0E"/><text text-anchor="middle" pointer-events="none" y="5" font-size="10px" fill="#604A0E" font-family="sans-serif"> 张休</text></g><g class="node" transform="translate(104.05071029864806,300.5006994623266)"><circle class="outline" cx="0" cy="0" r="25" fill="#ECB5C9" stroke="#da7298" stroke-width="2px"/><text text-anchor="middle" pointer-events="none" font-family="sans-serif" dy="1.5625" font-size="25" fill="#604A0E"/><text text-anchor="middle" pointer-events="none" y="5" font-size="10px" fill="#604A0E" font-family="sans-serif"> 孙权</text></g><g class="node" transform="translate(525.0624190886672,428.90080496616906)"><circle class="outline" cx="0" cy="0" r="25" fill="#ECB5C9" stroke="#da7298" stroke-width="2px"/><text text-anchor="middle" pointer-events="none" font-family="sans-serif" dy="1.5625" font-size="25" fill="#604A0E"/><text text-anchor="middle" pointer-events="none" y="5" font-size="10px" fill="#604A0E" font-family="sans-serif"> 诸葛亮</text></g><g class="node" transform="translate(448.3853950525769,485.9605461922245)"><circle class="outline" cx="0" cy="0" r="32.5" fill="#8DCC93" stroke="#5db665" stroke-width="2px"/><text text-anchor="middle" pointer-events="none" font-family="sans-serif" dy="2.03125" font-size="32.5" fill="#604A0E"/><text text-anchor="middle" pointer-events="none" y="5" font-size="10px" fill="#604A0E" font-family="sans-serif"> 蜀汉</text></g><g class="node" transform="translate(414.73519603334717,619.1983437311413)"><circle class="outline" cx="0" cy="0" r="25" fill="#ECB5C9" stroke="#da7298" stroke-width="2px"/><text text-anchor="middle" pointer-events="none" font-family="sans-serif" dy="1.5625" font-size="25" fill="#604A0E"/><text text-anchor="middle" pointer-events="none" y="5" font-size="10px" fill="#604A0E" font-family="sans-serif"> 张峻</text></g><g class="node" transform="translate(374.38450083478295,427.58623950275)"><circle class="outline" cx="0" cy="0" r="25" fill="#ECB5C9" stroke="#da7298" stroke-width="2px"/><text text-anchor="middle" pointer-events="none" font-family="sans-serif" dy="1.5625" font-size="25" fill="#604A0E"/><text text-anchor="middle" pointer-events="none" y="5" font-size="10px" fill="#604A0E" font-family="sans-serif"> 张南</text></g><g class="node" transform="translate(454.27014279287545,322.2510165213405)"><circle class="outline" cx="0" cy="0" r="25" fill="#ECB5C9" stroke="#da7298" stroke-width="2px"/><text text-anchor="middle" pointer-events="none" font-family="sans-serif" dy="1.5625" font-size="25" fill="#604A0E"/><text text-anchor="middle" pointer-events="none" y="5" font-size="10px" fill="#604A0E" font-family="sans-serif"> 刘备</text></g><g class="node" transform="translate(62.92946758434788,451.47929234176155)"><circle class="outline" cx="0" cy="0" r="25" fill="#ECB5C9" stroke="#da7298" stroke-width="2px"/><text text-anchor="middle" pointer-events="none" font-family="sans-serif" dy="1.5625" font-size="25" fill="#604A0E"/><text text-anchor="middle" pointer-events="none" y="5" font-size="10px" fill="#604A0E" font-family="sans-serif"> 张约</text></g><g class="node" transform="translate(40.60381107690812,593.1256211634554)"><circle class="outline" cx="0" cy="0" r="32.5" fill="#8DCC93" stroke="#5db665" stroke-width="2px"/><text text-anchor="middle" pointer-events="none" font-family="sans-serif" dy="2.03125" font-size="32.5" fill="#604A0E"/><text text-anchor="middle" pointer-events="none" y="5" font-size="10px" fill="#604A0E" font-family="sans-serif"> 吴</text></g><g class="node" transform="translate(65.46492793815214,713.1674832006665)"><circle class="outline" cx="0" cy="0" r="25" fill="#ECB5C9" stroke="#da7298" stroke-width="2px"/><text text-anchor="middle" pointer-events="none" font-family="sans-serif" dy="1.5625" font-size="25" fill="#604A0E"/><text text-anchor="middle" pointer-events="none" y="5" font-size="10px" fill="#604A0E" font-family="sans-serif"> 张布</text></g><g class="node" transform="translate(525.0641395354719,-65.32706332062914)"><circle class="outline" cx="0" cy="0" r="25" fill="#ECB5C9" stroke="#da7298" stroke-width="2px"/><text text-anchor="middle" pointer-events="none" font-family="sans-serif" dy="1.5625" font-size="25" fill="#604A0E"/><text text-anchor="middle" pointer-events="none" y="5" font-size="10px" fill="#604A0E" font-family="sans-serif"> 张绍</text></g><g class="node" transform="translate(542.477576295758,-208.92750085140858)"><circle class="outline" cx="0" cy="0" r="32.5" fill="#8DCC93" stroke="#5db665" stroke-width="2px"/><text text-anchor="middle" pointer-events="none" font-family="sans-serif" dy="2.03125" font-size="32.5" fill="#604A0E"/><text text-anchor="middle" pointer-events="none" y="5" font-size="10px" fill="#604A0E" font-family="sans-serif">  西晋</text></g><g class="node" transform="translate(854.6284349536664,283.1237132992336)"><circle class="outline" cx="0" cy="0" r="25" fill="#ECB5C9" stroke="#da7298" stroke-width="2px"/><text text-anchor="middle" pointer-events="none" font-family="sans-serif" dy="1.5625" font-size="25" fill="#604A0E"/><text text-anchor="middle" pointer-events="none" y="5" font-size="10px" fill="#604A0E" font-family="sans-serif"> 张肃</text></g><g class="node" transform="translate(740.7290613654295,315.8904731247174)"><circle class="outline" cx="0" cy="0" r="32.5" fill="#8DCC93" stroke="#5db665" stroke-width="2px"/><text text-anchor="middle" pointer-events="none" font-family="sans-serif" dy="2.03125" font-size="32.5" fill="#604A0E"/><text text-anchor="middle" pointer-events="none" y="5" font-size="10px" fill="#604A0E" font-family="sans-serif"> 刘璋割据军阀</text></g><g class="node" transform="translate(797.4527905388231,193.84269277435527)"><circle class="outline" cx="0" cy="0" r="25" fill="#ECB5C9" stroke="#da7298" stroke-width="2px"/><text text-anchor="middle" pointer-events="none" font-family="sans-serif" dy="1.5625" font-size="25" fill="#604A0E"/><text text-anchor="middle" pointer-events="none" y="5" font-size="10px" fill="#604A0E" font-family="sans-serif"> 张任</text></g><g class="node" transform="translate(179.82885949220616,-242.17524045262726)"><circle class="outline" cx="0" cy="0" r="25" fill="#ECB5C9" stroke="#da7298" stroke-width="2px"/><text text-anchor="middle" pointer-events="none" font-family="sans-serif" dy="1.5625" font-size="25" fill="#604A0E"/><text text-anchor="middle" pointer-events="none" y="5" font-size="10px" fill="#604A0E" font-family="sans-serif"> 张鲁</text></g><g class="node" transform="translate(44.12576590958945,-176.1592986198677)"><circle class="outline" cx="0" cy="0" r="32.5" fill="#8DCC93" stroke="#5db665" stroke-width="2px"/><text text-anchor="middle" pointer-events="none" font-family="sans-serif" dy="2.03125" font-size="32.5" fill="#604A0E"/><text text-anchor="middle" pointer-events="none" y="5" font-size="10px" fill="#604A0E" font-family="sans-serif"> 东汉</text></g><g class="node" transform="translate(102.34085438965121,-282.1517746110819)"><circle class="outline" cx="0" cy="0" r="25" fill="#ECB5C9" stroke="#da7298" stroke-width="2px"/><text text-anchor="middle" pointer-events="none" font-family="sans-serif" dy="1.5625" font-size="25" fill="#604A0E"/><text text-anchor="middle" pointer-events="none" y="5" font-size="10px" fill="#604A0E" font-family="sans-serif"> 张音</text></g><g class="node" transform="translate(179.59293982357417,-178.97697804425036)"><circle class="outline" cx="0" cy="0" r="25" fill="#ECB5C9" stroke="#da7298" stroke-width="2px"/><text text-anchor="middle" pointer-events="none" font-family="sans-serif" dy="1.5625" font-size="25" fill="#604A0E"/><text text-anchor="middle" pointer-events="none" y="5" font-size="10px" fill="#604A0E" font-family="sans-serif"> 张闿</text></g><g class="node" transform="translate(92.23591190803438,-341.2908481205106)"><circle class="outline" cx="0" cy="0" r="25" fill="#ECB5C9" stroke="#da7298" stroke-width="2px"/><text text-anchor="middle" pointer-events="none" font-family="sans-serif" dy="1.5625" font-size="25" fill="#604A0E"/><text text-anchor="middle" pointer-events="none" y="5" font-size="10px" fill="#604A0E" font-family="sans-serif"> 张钧</text></g><g class="node" transform="translate(159.1741862395614,-301.3845815985592)"><circle class="outline" cx="0" cy="0" r="25" fill="#ECB5C9" stroke="#da7298" stroke-width="2px"/><text text-anchor="middle" pointer-events="none" font-family="sans-serif" dy="1.5625" font-size="25" fill="#604A0E"/><text text-anchor="middle" pointer-events="none" y="5" font-size="10px" fill="#604A0E" font-family="sans-serif"> 张让</text></g><g class="node" transform="translate(-22.968207892658192,-308.3232979269822)"><circle class="outline" cx="0" cy="0" r="25" fill="#ECB5C9" stroke="#da7298" stroke-width="2px"/><text text-anchor="middle" pointer-events="none" font-family="sans-serif" dy="1.5625" font-size="25" fill="#604A0E"/><text text-anchor="middle" pointer-events="none" y="5" font-size="10px" fill="#604A0E" font-family="sans-serif"> 张衡</text></g><g class="node" transform="translate(-52.7277967409292,-249.55773463779988)"><circle class="outline" cx="0" cy="0" r="25" fill="#ECB5C9" stroke="#da7298" stroke-width="2px"/><text text-anchor="middle" pointer-events="none" font-family="sans-serif" dy="1.5625" font-size="25" fill="#604A0E"/><text text-anchor="middle" pointer-events="none" y="5" font-size="10px" fill="#604A0E" font-family="sans-serif"> 名不详</text></g><g class="node" transform="translate(32.984609321052424,-329.94942866628946)"><circle class="outline" cx="0" cy="0" r="25" fill="#ECB5C9" stroke="#da7298" stroke-width="2px"/><text text-anchor="middle" pointer-events="none" font-family="sans-serif" dy="1.5625" font-size="25" fill="#604A0E"/><text text-anchor="middle" pointer-events="none" y="5" font-size="10px" fill="#604A0E" font-family="sans-serif"> 张横</text></g><g class="node" transform="translate(142.64519725359173,-111.51431065517728)"><circle class="outline" cx="0" cy="0" r="25" fill="#ECB5C9" stroke="#da7298" stroke-width="2px"/><text text-anchor="middle" pointer-events="none" font-family="sans-serif" dy="1.5625" font-size="25" fill="#604A0E"/><text text-anchor="middle" pointer-events="none" y="5" font-size="10px" fill="#604A0E" font-family="sans-serif"> 张杨</text></g><g class="node" transform="translate(-130.5048308520458,-145.9889902346001)"><circle class="outline" cx="0" cy="0" r="25" fill="#ECB5C9" stroke="#da7298" stroke-width="2px"/><text text-anchor="middle" pointer-events="none" font-family="sans-serif" dy="1.5625" font-size="25" fill="#604A0E"/><text text-anchor="middle" pointer-events="none" y="5" font-size="10px" fill="#604A0E" font-family="sans-serif"> 张卫</text></g><g class="node" transform="translate(624.7539257635035,-161.5698182628051)"><circle class="outline" cx="0" cy="0" r="32.5" fill="#8DCC93" stroke="#5db665" stroke-width="2px"/><text text-anchor="middle" pointer-events="none" font-family="sans-serif" dy="2.03125" font-size="32.5" fill="#604A0E"/><text text-anchor="middle" pointer-events="none" y="5" font-size="10px" fill="#604A0E" font-family="sans-serif">  魏</text></g><g class="node" transform="translate(547.8629558892285,156.52796105951256)"><circle class="outline" cx="0" cy="0" r="25" fill="#ECB5C9" stroke="#da7298" stroke-width="2px"/><text text-anchor="middle" pointer-events="none" font-family="sans-serif" dy="1.5625" font-size="25" fill="#604A0E"/><text text-anchor="middle" pointer-events="none" y="5" font-size="10px" fill="#604A0E" font-family="sans-serif"> 张飞</text></g><g class="node" transform="translate(434.87149878042516,73.79682549569849)"><circle class="outline" cx="0" cy="0" r="32.5" fill="#8DCC93" stroke="#5db665" stroke-width="2px"/><text text-anchor="middle" pointer-events="none" font-family="sans-serif" dy="2.03125" font-size="32.5" fill="#604A0E"/><text text-anchor="middle" pointer-events="none" y="5" font-size="10px" fill="#604A0E" font-family="sans-serif"> 蜀</text></g><g class="node" transform="translate(433.8411261048748,-62.09373085841031)"><circle class="outline" cx="0" cy="0" r="25" fill="#ECB5C9" stroke="#da7298" stroke-width="2px"/><text text-anchor="middle" pointer-events="none" font-family="sans-serif" dy="1.5625" font-size="25" fill="#604A0E"/><text text-anchor="middle" pointer-events="none" y="5" font-size="10px" fill="#604A0E" font-family="sans-serif"> 张遵</text></g><g class="node" transform="translate(398.55889711570757,231.9481901304323)"><circle class="outline" cx="0" cy="0" r="25" fill="#ECB5C9" stroke="#da7298" stroke-width="2px"/><text text-anchor="middle" pointer-events="none" font-family="sans-serif" dy="1.5625" font-size="25" fill="#604A0E"/><text text-anchor="middle" pointer-events="none" y="5" font-size="10px" fill="#604A0E" font-family="sans-serif"> 张裔</text></g><g class="node" transform="translate(488.8469177106844,166.90128042594222)"><circle class="outline" cx="0" cy="0" r="25" fill="#ECB5C9" stroke="#da7298" stroke-width="2px"/><text text-anchor="middle" pointer-events="none" font-family="sans-serif" dy="1.5625" font-size="25" fill="#604A0E"/><text text-anchor="middle" pointer-events="none" y="5" font-size="10px" fill="#604A0E" font-family="sans-serif"> 张著</text></g><g class="node" transform="translate(531.2390904524057,214.02617167854504)"><circle class="outline" cx="0" cy="0" r="25" fill="#ECB5C9" stroke="#da7298" stroke-width="2px"/><text text-anchor="middle" pointer-events="none" font-family="sans-serif" dy="1.5625" font-size="25" fill="#604A0E"/><text text-anchor="middle" pointer-events="none" y="5" font-size="10px" fill="#604A0E" font-family="sans-serif"> 张苞</text></g><g class="node" transform="translate(370.68426062086746,178.9540357389225)"><circle class="outline" cx="0" cy="0" r="25" fill="#ECB5C9" stroke="#da7298" stroke-width="2px"/><text text-anchor="middle" pointer-events="none" font-family="sans-serif" dy="1.5625" font-size="25" fill="#604A0E"/><text text-anchor="middle" pointer-events="none" y="5" font-size="10px" fill="#604A0E" font-family="sans-serif"> 张翼</text></g><g class="node" transform="translate(430.5797188149086,181.31313579347605)"><circle class="outline" cx="0" cy="0" r="25" fill="#ECB5C9" stroke="#da7298" stroke-width="2px"/><text text-anchor="middle" pointer-events="none" font-family="sans-serif" dy="1.5625" font-size="25" fill="#604A0E"/><text text-anchor="middle" pointer-events="none" y="5" font-size="10px" fill="#604A0E" font-family="sans-serif"> 张爽</text></g><g class="node" transform="translate(472.1797305545781,224.40375093697273)"><circle class="outline" cx="0" cy="0" r="25" fill="#ECB5C9" stroke="#da7298" stroke-width="2px"/><text text-anchor="middle" pointer-events="none" font-family="sans-serif" dy="1.5625" font-size="25" fill="#604A0E"/><text text-anchor="middle" pointer-events="none" y="5" font-size="10px" fill="#604A0E" font-family="sans-serif"> 张嶷</text></g><g class="node" transform="translate(-304.56357289241333,-123.0378853999627)"><circle class="outline" cx="0" cy="0" r="25" fill="#ECB5C9" stroke="#da7298" stroke-width="2px"/><text text-anchor="middle" pointer-events="none" font-family="sans-serif" dy="1.5625" font-size="25" fill="#604A0E"/><text text-anchor="middle" pointer-events="none" y="5" font-size="10px" fill="#604A0E" font-family="sans-serif"> 曹操</text></g><g class="node" transform="translate(-458.9528609642538,-103.95771472595058)"><circle class="outline" cx="0" cy="0" r="32.5" fill="#8DCC93" stroke="#5db665" stroke-width="2px"/><text text-anchor="middle" pointer-events="none" font-family="sans-serif" dy="2.03125" font-size="32.5" fill="#604A0E"/><text text-anchor="middle" pointer-events="none" y="5" font-size="10px" fill="#604A0E" font-family="sans-serif"> 魏国</text></g><g class="node" transform="translate(-389.9177047699091,-170.33369927025575)"><circle class="outline" cx="0" cy="0" r="25" fill="#ECB5C9" stroke="#da7298" stroke-width="2px"/><text text-anchor="middle" pointer-events="none" font-family="sans-serif" dy="1.5625" font-size="25" fill="#604A0E"/><text text-anchor="middle" pointer-events="none" y="5" font-size="10px" fill="#604A0E" font-family="sans-serif"> 张郃</text></g><g class="node" transform="translate(-339.9934919227113,-23.156533714285825)"><circle class="outline" cx="0" cy="0" r="25" fill="#ECB5C9" stroke="#da7298" stroke-width="2px"/><text text-anchor="middle" pointer-events="none" font-family="sans-serif" dy="1.5625" font-size="25" fill="#604A0E"/><text text-anchor="middle" pointer-events="none" y="5" font-size="10px" fill="#604A0E" font-family="sans-serif"> 张邈</text></g><g class="node" transform="translate(-372.3126222724759,-227.60121395639123)"><circle class="outline" cx="0" cy="0" r="25" fill="#ECB5C9" stroke="#da7298" stroke-width="2px"/><text text-anchor="middle" pointer-events="none" font-family="sans-serif" dy="1.5625" font-size="25" fill="#604A0E"/><text text-anchor="middle" pointer-events="none" y="5" font-size="10px" fill="#604A0E" font-family="sans-serif"> 张辽</text></g><g class="node" transform="translate(-398.94095588427473,-12.174042891016526)"><circle class="outline" cx="0" cy="0" r="25" fill="#ECB5C9" stroke="#da7298" stroke-width="2px"/><text text-anchor="middle" pointer-events="none" font-family="sans-serif" dy="1.5625" font-size="25" fill="#604A0E"/><text text-anchor="middle" pointer-events="none" y="5" font-size="10px" fill="#604A0E" font-family="sans-serif"> 张超</text></g><g class="node" transform="translate(-430.7463286924604,-214.24928440688353)"><circle class="outline" cx="0" cy="0" r="25" fill="#ECB5C9" stroke="#da7298" stroke-width="2px"/><text text-anchor="middle" pointer-events="none" font-family="sans-serif" dy="1.5625" font-size="25" fill="#604A0E"/><text text-anchor="middle" pointer-events="none" y="5" font-size="10px" fill="#604A0E" font-family="sans-serif"> 张虎</text></g><g class="node" transform="translate(-378.9844588696364,-68.71989350833444)"><circle class="outline" cx="0" cy="0" r="25" fill="#ECB5C9" stroke="#da7298" stroke-width="2px"/><text text-anchor="middle" pointer-events="none" font-family="sans-serif" dy="1.5625" font-size="25" fill="#604A0E"/><text text-anchor="middle" pointer-events="none" y="5" font-size="10px" fill="#604A0E" font-family="sans-serif"> 张绣</text></g><g class="node" transform="translate(-579.4349673909212,-141.44262770483562)"><circle class="outline" cx="0" cy="0" r="25" fill="#ECB5C9" stroke="#da7298" stroke-width="2px"/><text text-anchor="middle" pointer-events="none" font-family="sans-serif" dy="1.5625" font-size="25" fill="#604A0E"/><text text-anchor="middle" pointer-events="none" y="5" font-size="10px" fill="#604A0E" font-family="sans-serif"> 张统</text></g><g class="node" transform="translate(-291.4323887671757,272.923779087168)"><circle class="outline" cx="0" cy="0" r="25" fill="#ECB5C9" stroke="#da7298" stroke-width="2px"/><text text-anchor="middle" pointer-events="none" font-family="sans-serif" dy="1.5625" font-size="25" fill="#604A0E"/><text text-anchor="middle" pointer-events="none" y="5" font-size="10px" fill="#604A0E" font-family="sans-serif"> 张茂</text></g><g class="node" transform="translate(-181.4831234179524,214.56723781999384)"><circle class="outline" cx="0" cy="0" r="32.5" fill="#8DCC93" stroke="#5db665" stroke-width="2px"/><text text-anchor="middle" pointer-events="none" font-family="sans-serif" dy="2.03125" font-size="32.5" fill="#604A0E"/><text text-anchor="middle" pointer-events="none" y="5" font-size="10px" fill="#604A0E" font-family="sans-serif"> 魏</text></g><g class="node" transform="translate(-239.99716402480962,338.8216137167126)"><circle class="outline" cx="0" cy="0" r="25" fill="#ECB5C9" stroke="#da7298" stroke-width="2px"/><text text-anchor="middle" pointer-events="none" font-family="sans-serif" dy="1.5625" font-size="25" fill="#604A0E"/><text text-anchor="middle" pointer-events="none" y="5" font-size="10px" fill="#604A0E" font-family="sans-serif"> 张缉</text></g><g class="node" transform="translate(-45.832013007681454,288.5882470981396)"><circle class="outline" cx="0" cy="0" r="25" fill="#ECB5C9" stroke="#da7298" stroke-width="2px"/><text text-anchor="middle" pointer-events="none" font-family="sans-serif" dy="1.5625" font-size="25" fill="#604A0E"/><text text-anchor="middle" pointer-events="none" y="5" font-size="10px" fill="#604A0E" font-family="sans-serif"> 张特</text></g><g class="node" transform="translate(-236.39771574903494,44.0100914480803)"><circle class="outline" cx="0" cy="0" r="25" fill="#ECB5C9" stroke="#da7298" stroke-width="2px"/><text text-anchor="middle" pointer-events="none" font-family="sans-serif" dy="1.5625" font-size="25" fill="#604A0E"/><text text-anchor="middle" pointer-events="none" y="5" font-size="10px" fill="#604A0E" font-family="sans-serif"> 张既</text></g><g class="node" transform="translate(-166.31195615475764,347.36667946563)"><circle class="outline" cx="0" cy="0" r="25" fill="#ECB5C9" stroke="#da7298" stroke-width="2px"/><text text-anchor="middle" pointer-events="none" font-family="sans-serif" dy="1.5625" font-size="25" fill="#604A0E"/><text text-anchor="middle" pointer-events="none" y="5" font-size="10px" fill="#604A0E" font-family="sans-serif"> 张当</text></g><g class="node" transform="translate(-228.3986154201655,-223.64322480652945)"><circle class="outline" cx="0" cy="0" r="25" fill="#ECB5C9" stroke="#da7298" stroke-width="2px"/><text text-anchor="middle" pointer-events="none" font-family="sans-serif" dy="1.5625" font-size="25" fill="#604A0E"/><text text-anchor="middle" pointer-events="none" y="5" font-size="10px" fill="#604A0E" font-family="sans-serif"> 张𫖮</text></g><g class="node" transform="translate(-288.47442784376506,-266.8525410738047)"><circle class="outline" cx="0" cy="0" r="25" fill="#ECB5C9" stroke="#da7298" stroke-width="2px"/><text text-anchor="middle" pointer-events="none" font-family="sans-serif" dy="1.5625" font-size="25" fill="#604A0E"/><text text-anchor="middle" pointer-events="none" y="5" font-size="10px" fill="#604A0E" font-family="sans-serif"> 张允</text></g></g></svg>